<svg style="display:none" xmlns="http://www.w3.org/2000/svg" xmlns:xlink="http://www.w3.org/1999/xlink" version="1.1">

	<symbol id="shopping_bag" xmlns="http://www.w3.org/2000/svg" viewBox="0 -960 960 960" fill="currentColor"><path d="M240-80q-33 0-56.5-23.5T160-160v-480q0-33 23.5-56.5T240-720h80q0-66 47-113t113-47q66 0 113 47t47 113h80q33 0 56.5 23.5T800-640v480q0 33-23.5 56.5T720-80H240Zm0-80h480v-480h-80v80q0 17-11.5 28.5T600-520q-17 0-28.5-11.5T560-560v-80H400v80q0 17-11.5 28.5T360-520q-17 0-28.5-11.5T320-560v-80h-80v480Zm160-560h160q0-33-23.5-56.5T480-800q-33 0-56.5 23.5T400-720ZM240-160v-480 480Z"/></symbol>
	<symbol id="menu" xmlns="http://www.w3.org/2000/svg" viewBox="0 -960 960 960" fill="currentColor"><path d="M120-240v-80h720v80H120Zm0-200v-80h720v80H120Zm0-200v-80h720v80H120Z"/></symbol>
	<symbol id="account_circle" xmlns="http://www.w3.org/2000/svg" viewBox="0 -960 960 960" fill="currentColor"><path d="M234-276q51-39 114-61.5T480-360q69 0 132 22.5T726-276q35-41 54.5-93T800-480q0-133-93.5-226.5T480-800q-133 0-226.5 93.5T160-480q0 59 19.5 111t54.5 93Zm246-164q-59 0-99.5-40.5T340-580q0-59 40.5-99.5T480-720q59 0 99.5 40.5T620-580q0 59-40.5 99.5T480-440Zm0 360q-83 0-156-31.5T197-197q-54-54-85.5-127T80-480q0-83 31.5-156T197-763q54-54 127-85.5T480-880q83 0 156 31.5T763-763q54 54 85.5 127T880-480q0 83-31.5 156T763-197q-54 54-127 85.5T480-80Zm0-80q53 0 100-15.5t86-44.5q-39-29-86-44.5T480-280q-53 0-100 15.5T294-220q39 29 86 44.5T480-160Zm0-360q26 0 43-17t17-43q0-26-17-43t-43-17q-26 0-43 17t-17 43q0 26 17 43t43 17Zm0-60Zm0 360Z"/></symbol>
	<symbol id="close" xmlns="http://www.w3.org/2000/svg" viewBox="0 -960 960 960" fill="currentColor"><path d="m256-200-56-56 224-224-224-224 56-56 224 224 224-224 56 56-224 224 224 224-56 56-224-224-224 224Z"/></symbol>
	<symbol id="chevron-right" xmlns="http://www.w3.org/2000/svg" viewBox="0 -960 960 960" fill="currentColor"><path d="M504-480 320-664l56-56 240 240-240 240-56-56 184-184Z"/></symbol>
	<symbol id="favorite" xmlns="http://www.w3.org/2000/svg" viewBox="0 -960 960 960" fill="currentColor"><path d="m480-120-58-52q-101-91-167-157T150-447.5Q111-500 95.5-544T80-634q0-94 63-157t157-63q52 0 99 22t81 62q34-40 81-62t99-22q94 0 157 63t63 157q0 46-15.5 90T810-447.5Q771-395 705-329T538-172l-58 52Zm0-108q96-86 158-147.5t98-107q36-45.5 50-81t14-70.5q0-60-40-100t-100-40q-47 0-87 26.5T518-680h-76q-15-41-55-67.5T300-774q-60 0-100 40t-40 100q0 35 14 70.5t50 81q36 45.5 98 107T480-228Zm0-273Z"/></symbol>
	<symbol id="home_pin" xmlns="http://www.w3.org/2000/svg" viewBox="0 -960 960 960" fill="currentColor"><path d="M360-440h80v-110h80v110h80v-190l-120-80-120 80v190Zm120 254q122-112 181-203.5T720-552q0-109-69.5-178.5T480-800q-101 0-170.5 69.5T240-552q0 71 59 162.5T480-186Zm0 106Q319-217 239.5-334.5T160-552q0-150 96.5-239T480-880q127 0 223.5 89T800-552q0 100-79.5 217.5T480-80Zm0-480Z"/></symbol>
	<symbol id="call" xmlns="http://www.w3.org/2000/svg" viewBox="0 -960 960 960" fill="currentColor"><path d="M798-120q-125 0-247-54.5T329-329Q229-429 174.5-551T120-798q0-18 12-30t30-12h162q14 0 25 9.5t13 22.5l26 140q2 16-1 27t-11 19l-97 98q20 37 47.5 71.5T387-386q31 31 65 57.5t72 48.5l94-94q9-9 23.5-13.5T670-390l138 28q14 4 23 14.5t9 23.5v162q0 18-12 30t-30 12ZM241-600l66-66-17-94h-89q5 41 14 81t26 79Zm358 358q39 17 79.5 27t81.5 13v-88l-94-19-67 67ZM241-600Zm358 358Z"/></symbol>
	<symbol id="local_shipping" xmlns="http://www.w3.org/2000/svg" viewBox="0 -960 960 960" fill="currentColor"><path d="M240-160q-50 0-85-35t-35-85H40v-440q0-33 23.5-56.5T120-800h560v160h120l120 160v200h-80q0 50-35 85t-85 35q-50 0-85-35t-35-85H360q0 50-35 85t-85 35Zm0-80q17 0 28.5-11.5T280-280q0-17-11.5-28.5T240-320q-17 0-28.5 11.5T200-280q0 17 11.5 28.5T240-240ZM120-360h32q17-18 39-29t49-11q27 0 49 11t39 29h272v-360H120v360Zm600 120q17 0 28.5-11.5T760-280q0-17-11.5-28.5T720-320q-17 0-28.5 11.5T680-280q0 17 11.5 28.5T720-240Zm-40-200h170l-90-120h-80v120ZM360-540Z"/></symbol>
	<symbol id="pan_zoom" xmlns="http://www.w3.org/2000/svg" viewBox="0 -960 960 960" fill="currentColor"><path d="M120-120v-240h80v104l124-124 56 56-124 124h104v80H120Zm516-460-56-56 124-124H600v-80h240v240h-80v-104L636-580Z"/></symbol>
	<symbol id="share" xmlns="http://www.w3.org/2000/svg" viewBox="0 -960 960 960" fill="currentColor"><path d="M720-80q-50 0-85-35t-35-85q0-7 1-14.5t3-13.5L322-392q-17 15-38 23.5t-44 8.5q-50 0-85-35t-35-85q0-50 35-85t85-35q23 0 44 8.5t38 23.5l282-164q-2-6-3-13.5t-1-14.5q0-50 35-85t85-35q50 0 85 35t35 85q0 50-35 85t-85 35q-23 0-44-8.5T638-672L356-508q2 6 3 13.5t1 14.5q0 7-1 14.5t-3 13.5l282 164q17-15 38-23.5t44-8.5q50 0 85 35t35 85q0 50-35 85t-85 35Zm0-640q17 0 28.5-11.5T760-760q0-17-11.5-28.5T720-800q-17 0-28.5 11.5T680-760q0 17 11.5 28.5T720-720ZM240-440q17 0 28.5-11.5T280-480q0-17-11.5-28.5T240-520q-17 0-28.5 11.5T200-480q0 17 11.5 28.5T240-440Zm480 280q17 0 28.5-11.5T760-200q0-17-11.5-28.5T720-240q-17 0-28.5 11.5T680-200q0 17 11.5 28.5T720-160Zm0-600ZM240-480Zm480 280Z"/></symbol>
	<symbol id="sell" xmlns="http://www.w3.org/2000/svg" viewBox="0 -960 960 960" fill="currentColor"><path d="M856-390 570-104q-12 12-27 18t-30 6q-15 0-30-6t-27-18L103-457q-11-11-17-25.5T80-513v-287q0-33 23.5-56.5T160-880h287q16 0 31 6.5t26 17.5l352 353q12 12 17.5 27t5.5 30q0 15-5.5 29.5T856-390ZM513-160l286-286-353-354H160v286l353 354ZM260-640q25 0 42.5-17.5T320-700q0-25-17.5-42.5T260-760q-25 0-42.5 17.5T200-700q0 25 17.5 42.5T260-640Zm220 160Z"/></symbol>
	<symbol id="check-circle" xmlns="http://www.w3.org/2000/svg" viewBox="0 -960 960 960" fill="currentColor"><path d="m424-296 282-282-56-56-226 226-114-114-56 56 170 170Zm56 216q-83 0-156-31.5T197-197q-54-54-85.5-127T80-480q0-83 31.5-156T197-763q54-54 127-85.5T480-880q83 0 156 31.5T763-763q54 54 85.5 127T880-480q0 83-31.5 156T763-197q-54 54-127 85.5T480-80Zm0-80q134 0 227-93t93-227q0-134-93-227t-227-93q-134 0-227 93t-93 227q0 134 93 227t227 93Zm0-320Z"/></symbol>
	<symbol id="error" xmlns="http://www.w3.org/2000/svg" viewBox="0 -960 960 960" fill="currentColor"><path d="M480-280q17 0 28.5-11.5T520-320q0-17-11.5-28.5T480-360q-17 0-28.5 11.5T440-320q0 17 11.5 28.5T480-280Zm-40-160h80v-240h-80v240Zm40 360q-83 0-156-31.5T197-197q-54-54-85.5-127T80-480q0-83 31.5-156T197-763q54-54 127-85.5T480-880q83 0 156 31.5T763-763q54 54 85.5 127T880-480q0 83-31.5 156T763-197q-54 54-127 85.5T480-80Zm0-80q134 0 227-93t93-227q0-134-93-227t-227-93q-134 0-227 93t-93 227q0 134 93 227t227 93Zm0-320Z"/></symbol>
	<symbol id="trash" xmlns="http://www.w3.org/2000/svg" viewBox="0 -960 960 960" fill="currentColor"><path d="M280-120q-33 0-56.5-23.5T200-200v-520h-40v-80h200v-40h240v40h200v80h-40v520q0 33-23.5 56.5T680-120H280Zm400-600H280v520h400v-520ZM360-280h80v-360h-80v360Zm160 0h80v-360h-80v360ZM280-720v520-520Z"/></symbol>



	<symbol id="new-search" xmlns="http://www.w3.org/2000/svg" width="20" height="20" viewBox="0 0 20 20" fill="none">
		<path d="M17.9419 17.0578L14.0302 13.1469C15.1639 11.7857 15.7293 10.0398 15.6086 8.27245C15.488 6.50506 14.6906 4.85223 13.3823 3.65779C12.074 2.46335 10.3557 1.81926 8.58462 1.85951C6.81357 1.89976 5.12622 2.62125 3.87358 3.87389C2.62094 5.12654 1.89945 6.81388 1.8592 8.58493C1.81895 10.356 2.46304 12.0744 3.65748 13.3826C4.85192 14.6909 6.50475 15.4883 8.27214 15.6089C10.0395 15.7296 11.7854 15.1642 13.1466 14.0305L17.0575 17.9422C17.1156 18.0003 17.1845 18.0463 17.2604 18.0777C17.3363 18.1092 17.4176 18.1254 17.4997 18.1254C17.5818 18.1254 17.6631 18.1092 17.739 18.0777C17.8149 18.0463 17.8838 18.0003 17.9419 17.9422C17.9999 17.8841 18.046 17.8152 18.0774 17.7393C18.1089 17.6634 18.125 17.5821 18.125 17.5C18.125 17.4179 18.1089 17.3366 18.0774 17.2607C18.046 17.1848 17.9999 17.1159 17.9419 17.0578ZM3.12469 8.75C3.12469 7.63748 3.45459 6.54995 4.07267 5.62492C4.69076 4.69989 5.56926 3.97892 6.5971 3.55318C7.62493 3.12744 8.75593 3.01604 9.84707 3.23309C10.9382 3.45013 11.9405 3.98586 12.7272 4.77253C13.5138 5.5592 14.0496 6.56148 14.2666 7.65262C14.4837 8.74376 14.3723 9.87476 13.9465 10.9026C13.5208 11.9304 12.7998 12.8089 11.8748 13.427C10.9497 14.0451 9.86221 14.375 8.74969 14.375C7.25836 14.3733 5.82858 13.7802 4.77404 12.7257C3.71951 11.6711 3.12634 10.2413 3.12469 8.75Z" fill="#A0A0A0"/>
	</symbol>


	<symbol id="new-close" xmlns="http://www.w3.org/2000/svg" width="20" height="20" viewBox="0 0 20 20" fill="none">
  	<path d="M16.0675 15.1828C16.1256 15.2409 16.1717 15.3098 16.2031 15.3857C16.2345 15.4615 16.2507 15.5429 16.2507 15.625C16.2507 15.7071 16.2345 15.7884 16.2031 15.8643C16.1717 15.9402 16.1256 16.0091 16.0675 16.0672C16.0095 16.1252 15.9405 16.1713 15.8647 16.2027C15.7888 16.2342 15.7075 16.2503 15.6253 16.2503C15.5432 16.2503 15.4619 16.2342 15.386 16.2027C15.3102 16.1713 15.2412 16.1252 15.1832 16.0672L10.0003 10.8836L4.81753 16.0672C4.70026 16.1844 4.5412 16.2503 4.37535 16.2503C4.2095 16.2503 4.05044 16.1844 3.93316 16.0672C3.81588 15.9499 3.75 15.7908 3.75 15.625C3.75 15.4591 3.81588 15.3001 3.93316 15.1828L9.11675 9.99998L3.93316 4.81717C3.81588 4.69989 3.75 4.54083 3.75 4.37498C3.75 4.20913 3.81588 4.05007 3.93316 3.93279C4.05044 3.81552 4.2095 3.74963 4.37535 3.74963C4.5412 3.74963 4.70026 3.81552 4.81753 3.93279L10.0003 9.11639L15.1832 3.93279C15.3004 3.81552 15.4595 3.74963 15.6253 3.74963C15.7912 3.74963 15.9503 3.81552 16.0675 3.93279C16.1848 4.05007 16.2507 4.20913 16.2507 4.37498C16.2507 4.54083 16.1848 4.69989 16.0675 4.81717L10.8839 9.99998L16.0675 15.1828Z" fill="#A0A0A0"/>
	</symbol>

	<symbol id="new-login" xmlns="http://www.w3.org/2000/svg" width="32" height="32" viewBox="0 0 32 32" fill="none">
  	<path d="M28.8648 26.5C26.9611 23.2087 24.0273 20.8487 20.6036 19.73C22.2971 18.7218 23.6129 17.1856 24.3489 15.3572C25.0848 13.5289 25.2002 11.5095 24.6774 9.60918C24.1546 7.70887 23.0224 6.03272 21.4548 4.83814C19.8872 3.64355 17.9708 2.99658 15.9998 2.99658C14.0289 2.99658 12.1125 3.64355 10.5449 4.83814C8.97725 6.03272 7.84509 7.70887 7.32228 9.60918C6.79946 11.5095 6.91488 13.5289 7.65083 15.3572C8.38678 17.1856 9.70256 18.7218 11.3961 19.73C7.97235 20.8475 5.0386 23.2075 3.13485 26.5C3.06504 26.6138 3.01873 26.7405 2.99866 26.8725C2.97859 27.0045 2.98517 27.1392 3.01801 27.2687C3.05084 27.3981 3.10927 27.5197 3.18984 27.6262C3.27041 27.7326 3.3715 27.8219 3.48713 27.8887C3.60277 27.9555 3.73061 27.9985 3.86311 28.015C3.99561 28.0316 4.1301 28.0215 4.25863 27.9853C4.38716 27.949 4.50713 27.8874 4.61146 27.8041C4.71579 27.7207 4.80238 27.6173 4.8661 27.5C7.2211 23.43 11.3836 21 15.9998 21C20.6161 21 24.7786 23.43 27.1336 27.5C27.1973 27.6173 27.2839 27.7207 27.3882 27.8041C27.4926 27.8874 27.6125 27.949 27.7411 27.9853C27.8696 28.0215 28.0041 28.0316 28.1366 28.015C28.2691 27.9985 28.3969 27.9555 28.5126 27.8887C28.6282 27.8219 28.7293 27.7326 28.8099 27.6262C28.8904 27.5197 28.9489 27.3981 28.9817 27.2687C29.0145 27.1392 29.0211 27.0045 29.001 26.8725C28.981 26.7405 28.9347 26.6138 28.8648 26.5ZM8.99985 12C8.99985 10.6155 9.41039 9.26214 10.1796 8.11099C10.9487 6.95985 12.042 6.06264 13.3211 5.53283C14.6001 5.00301 16.0076 4.86439 17.3655 5.13449C18.7233 5.40458 19.9706 6.07127 20.9496 7.05023C21.9286 8.0292 22.5952 9.27648 22.8653 10.6344C23.1354 11.9922 22.9968 13.3997 22.467 14.6788C21.9372 15.9578 21.04 17.0511 19.8888 17.8203C18.7377 18.5894 17.3843 19 15.9998 19C14.1439 18.998 12.3646 18.2599 11.0523 16.9475C9.73997 15.6352 9.00184 13.8559 8.99985 12Z" fill="#A1C342"/>
	</symbol>

	<symbol id="new-cart" xmlns="http://www.w3.org/2000/svg" width="32" height="32" viewBox="0 0 32 32" fill="none" >
 	<path d="M13 27C13 27.3956 12.8827 27.7822 12.6629 28.1111C12.4432 28.44 12.1308 28.6964 11.7654 28.8478C11.3999 28.9991 10.9978 29.0387 10.6098 28.9616C10.2219 28.8844 9.86549 28.6939 9.58579 28.4142C9.30608 28.1345 9.1156 27.7781 9.03843 27.3902C8.96126 27.0022 9.00087 26.6001 9.15224 26.2346C9.30362 25.8692 9.55996 25.5568 9.88886 25.3371C10.2178 25.1173 10.6044 25 11 25C11.5304 25 12.0391 25.2107 12.4142 25.5858C12.7893 25.9609 13 26.4696 13 27ZM24 25C23.6044 25 23.2178 25.1173 22.8889 25.3371C22.56 25.5568 22.3036 25.8692 22.1522 26.2346C22.0009 26.6001 21.9613 27.0022 22.0384 27.3902C22.1156 27.7781 22.3061 28.1345 22.5858 28.4142C22.8655 28.6939 23.2219 28.8844 23.6098 28.9616C23.9978 29.0387 24.3999 28.9991 24.7654 28.8478C25.1308 28.6964 25.4432 28.44 25.6629 28.1111C25.8827 27.7822 26 27.3956 26 27C26 26.4696 25.7893 25.9609 25.4142 25.5858C25.0391 25.2107 24.5304 25 24 25ZM29.9638 9.2675L26.7588 20.8025C26.5825 21.4326 26.2056 21.9881 25.6852 22.3846C25.1648 22.7812 24.5293 22.9973 23.875 23H11.52C10.8638 22.9997 10.2257 22.7848 9.703 22.388C9.18031 21.9913 8.80173 21.4345 8.625 20.8025L4.24 5H2C1.73478 5 1.48043 4.89464 1.29289 4.70711C1.10536 4.51957 1 4.26522 1 4C1 3.73478 1.10536 3.48043 1.29289 3.29289C1.48043 3.10536 1.73478 3 2 3H5C5.21863 2.99996 5.43124 3.07156 5.6053 3.20386C5.77936 3.33615 5.90527 3.52184 5.96375 3.7325L7.14875 8H29C29.1542 7.99997 29.3062 8.03558 29.4444 8.10406C29.5825 8.17254 29.7029 8.27202 29.7962 8.39474C29.8895 8.51746 29.9532 8.66009 29.9823 8.81149C30.0113 8.96289 30.005 9.11895 29.9638 9.2675ZM27.6838 10H7.705L10.5562 20.2675C10.6147 20.4782 10.7406 20.6638 10.9147 20.7961C11.0888 20.9284 11.3014 21 11.52 21H23.875C24.0936 21 24.3062 20.9284 24.4803 20.7961C24.6544 20.6638 24.7803 20.4782 24.8388 20.2675L27.6838 10Z" fill="#A1C342"/>
	</symbol>
 
	<symbol id="new-chevron-down" xmlns="http://www.w3.org/2000/svg" width="12" height="13" viewBox="0 0 12 13" fill="none">
  <path d="M10.0155 5.26531L6.26552 9.01531C6.23069 9.05017 6.18934 9.07783 6.14381 9.0967C6.09829 9.11558 6.04949 9.12529 6.00021 9.12529C5.95093 9.12529 5.90213 9.11558 5.85661 9.0967C5.81108 9.07783 5.76972 9.05017 5.7349 9.01531L1.9849 5.26531C1.91453 5.19494 1.875 5.09951 1.875 4.99999C1.875 4.90048 1.91453 4.80505 1.9849 4.73468C2.05526 4.66432 2.1507 4.62479 2.25021 4.62479C2.34972 4.62479 2.44516 4.66432 2.51552 4.73468L6.00021 8.21984L9.4849 4.73468C9.51974 4.69984 9.5611 4.6722 9.60662 4.65335C9.65214 4.63449 9.70094 4.62479 9.75021 4.62479C9.79948 4.62479 9.84827 4.63449 9.8938 4.65335C9.93932 4.6722 9.98068 4.69984 10.0155 4.73468C10.0504 4.76952 10.078 4.81089 10.0969 4.85641C10.1157 4.90193 10.1254 4.95072 10.1254 4.99999C10.1254 5.04927 10.1157 5.09806 10.0969 5.14358C10.078 5.1891 10.0504 5.23047 10.0155 5.26531Z" fill="#A1C342"/>
	</symbol>

	<symbol id="new-chevron-right" xmlns="http://www.w3.org/2000/svg" width="12" height="13" viewBox="0 0 12 12" fill="none">
  	<path d="M4.76552 1.98469L8.51552 5.73469C8.55039 5.76952 8.57805 5.81088 8.59692 5.8564C8.61579 5.90193 8.6255 5.95072 8.6255 6.00001C8.6255 6.04929 8.61579 6.09808 8.59692 6.14361C8.57805 6.18913 8.55039 6.23049 8.51552 6.26532L4.76552 10.0153C4.69516 10.0857 4.59972 10.1252 4.50021 10.1252C4.4007 10.1252 4.30526 10.0857 4.2349 10.0153C4.16453 9.94495 4.125 9.84952 4.125 9.75001C4.125 9.65049 4.16453 9.55506 4.2349 9.48469L7.72005 6.00001L4.2349 2.51532C4.20005 2.48048 4.17242 2.43911 4.15356 2.39359C4.1347 2.34807 4.125 2.29928 4.125 2.25C4.125 2.20073 4.1347 2.15194 4.15356 2.10642C4.17242 2.0609 4.20005 2.01953 4.2349 1.98469C4.26974 1.94985 4.3111 1.92221 4.35662 1.90336C4.40214 1.8845 4.45094 1.8748 4.50021 1.8748C4.54948 1.8748 4.59827 1.8845 4.64379 1.90336C4.68932 1.92221 4.73068 1.94985 4.76552 1.98469Z" fill="#00754A"/>
	</symbol>
 <svg >

 <symbol id="new-close-white" xmlns="http://www.w3.org/2000/svg" width="24" height="24" viewBox="0 0 24 24" fill="none">
  <path d="M19.281 18.2193C19.3507 18.289 19.406 18.3717 19.4437 18.4628C19.4814 18.5538 19.5008 18.6514 19.5008 18.7499C19.5008 18.8485 19.4814 18.9461 19.4437 19.0371C19.406 19.1281 19.3507 19.2109 19.281 19.2806C19.2114 19.3502 19.1286 19.4055 19.0376 19.4432C18.9465 19.4809 18.849 19.5003 18.7504 19.5003C18.6519 19.5003 18.5543 19.4809 18.4632 19.4432C18.3722 19.4055 18.2895 19.3502 18.2198 19.2806L12.0004 13.0602L5.78104 19.2806C5.64031 19.4213 5.44944 19.5003 5.25042 19.5003C5.05139 19.5003 4.86052 19.4213 4.71979 19.2806C4.57906 19.1398 4.5 18.949 4.5 18.7499C4.5 18.5509 4.57906 18.36 4.71979 18.2193L10.9401 11.9999L4.71979 5.78055C4.57906 5.63982 4.5 5.44895 4.5 5.24993C4.5 5.05091 4.57906 4.86003 4.71979 4.7193C4.86052 4.57857 5.05139 4.49951 5.25042 4.49951C5.44944 4.49951 5.64031 4.57857 5.78104 4.7193L12.0004 10.9396L18.2198 4.7193C18.3605 4.57857 18.5514 4.49951 18.7504 4.49951C18.9494 4.49951 19.1403 4.57857 19.281 4.7193C19.4218 4.86003 19.5008 5.05091 19.5008 5.24993C19.5008 5.44895 19.4218 5.63982 19.281 5.78055L13.0607 11.9999L19.281 18.2193Z" fill="white"/>
</symbol>

<symbol id="new-trash" xmlns="http://www.w3.org/2000/svg" width="24" height="24" viewBox="0 0 24 24" fill="none">
  <path d="M20.25 4.5H16.5V3.75C16.5 3.15326 16.2629 2.58097 15.841 2.15901C15.419 1.73705 14.8467 1.5 14.25 1.5H9.75C9.15326 1.5 8.58097 1.73705 8.15901 2.15901C7.73705 2.58097 7.5 3.15326 7.5 3.75V4.5H3.75C3.55109 4.5 3.36032 4.57902 3.21967 4.71967C3.07902 4.86032 3 5.05109 3 5.25C3 5.44891 3.07902 5.63968 3.21967 5.78033C3.36032 5.92098 3.55109 6 3.75 6H4.5V19.5C4.5 19.8978 4.65804 20.2794 4.93934 20.5607C5.22064 20.842 5.60218 21 6 21H18C18.3978 21 18.7794 20.842 19.0607 20.5607C19.342 20.2794 19.5 19.8978 19.5 19.5V6H20.25C20.4489 6 20.6397 5.92098 20.7803 5.78033C20.921 5.63968 21 5.44891 21 5.25C21 5.05109 20.921 4.86032 20.7803 4.71967C20.6397 4.57902 20.4489 4.5 20.25 4.5ZM9 3.75C9 3.55109 9.07902 3.36032 9.21967 3.21967C9.36032 3.07902 9.55109 3 9.75 3H14.25C14.4489 3 14.6397 3.07902 14.7803 3.21967C14.921 3.36032 15 3.55109 15 3.75V4.5H9V3.75ZM18 19.5H6V6H18V19.5ZM10.5 9.75V15.75C10.5 15.9489 10.421 16.1397 10.2803 16.2803C10.1397 16.421 9.94891 16.5 9.75 16.5C9.55109 16.5 9.36032 16.421 9.21967 16.2803C9.07902 16.1397 9 15.9489 9 15.75V9.75C9 9.55109 9.07902 9.36032 9.21967 9.21967C9.36032 9.07902 9.55109 9 9.75 9C9.94891 9 10.1397 9.07902 10.2803 9.21967C10.421 9.36032 10.5 9.55109 10.5 9.75ZM15 9.75V15.75C15 15.9489 14.921 16.1397 14.7803 16.2803C14.6397 16.421 14.4489 16.5 14.25 16.5C14.0511 16.5 13.8603 16.421 13.7197 16.2803C13.579 16.1397 13.5 15.9489 13.5 15.75V9.75C13.5 9.55109 13.579 9.36032 13.7197 9.21967C13.8603 9.07902 14.0511 9 14.25 9C14.4489 9 14.6397 9.07902 14.7803 9.21967C14.921 9.36032 15 9.55109 15 9.75Z" fill="#A0A0A0"/>
</symbol>

<symbol id="minus" xmlns="http://www.w3.org/2000/svg" width="14" height="14" viewBox="0 0 14 14" fill="none">
  <path d="M12.25 7C12.25 7.11603 12.2039 7.22731 12.1219 7.30936C12.0398 7.39141 11.9285 7.4375 11.8125 7.4375H2.1875C2.07147 7.4375 1.96019 7.39141 1.87814 7.30936C1.79609 7.22731 1.75 7.11603 1.75 7C1.75 6.88397 1.79609 6.77269 1.87814 6.69064C1.96019 6.60859 2.07147 6.5625 2.1875 6.5625H11.8125C11.9285 6.5625 12.0398 6.60859 12.1219 6.69064C12.2039 6.77269 12.25 6.88397 12.25 7Z" fill="#A0A0A0"/>
</symbol>

<symbol id="plus" xmlns="http://www.w3.org/2000/svg" width="14" height="14" viewBox="0 0 14 14" fill="none">
  <path d="M12.25 7C12.25 7.11603 12.2039 7.22731 12.1219 7.30936C12.0398 7.39141 11.9285 7.4375 11.8125 7.4375H7.4375V11.8125C7.4375 11.9285 7.39141 12.0398 7.30936 12.1219C7.22731 12.2039 7.11603 12.25 7 12.25C6.88397 12.25 6.77269 12.2039 6.69064 12.1219C6.60859 12.0398 6.5625 11.9285 6.5625 11.8125V7.4375H2.1875C2.07147 7.4375 1.96019 7.39141 1.87814 7.30936C1.79609 7.22731 1.75 7.11603 1.75 7C1.75 6.88397 1.79609 6.77269 1.87814 6.69064C1.96019 6.60859 2.07147 6.5625 2.1875 6.5625H6.5625V2.1875C6.5625 2.07147 6.60859 1.96019 6.69064 1.87814C6.77269 1.79609 6.88397 1.75 7 1.75C7.11603 1.75 7.22731 1.79609 7.30936 1.87814C7.39141 1.96019 7.4375 2.07147 7.4375 2.1875V6.5625H11.8125C11.9285 6.5625 12.0398 6.60859 12.1219 6.69064C12.2039 6.77269 12.25 6.88397 12.25 7Z" fill="#A0A0A0"/>
</symbol>

<symbol id="cart-white" xmlns="http://www.w3.org/2000/svg" width="20" height="20" viewBox="0 0 20 20" fill="none">
  <path d="M8.125 16.875C8.125 17.1222 8.05169 17.3639 7.91434 17.5695C7.77699 17.775 7.58176 17.9352 7.35335 18.0299C7.12495 18.1245 6.87361 18.1492 6.63114 18.101C6.38866 18.0527 6.16593 17.9337 5.99112 17.7589C5.8163 17.5841 5.69725 17.3613 5.64902 17.1189C5.60079 16.8764 5.62554 16.6251 5.72015 16.3966C5.81476 16.1682 5.97498 15.973 6.18054 15.8357C6.3861 15.6983 6.62777 15.625 6.875 15.625C7.20652 15.625 7.52446 15.7567 7.75888 15.9911C7.9933 16.2255 8.125 16.5435 8.125 16.875ZM15 15.625C14.7528 15.625 14.5111 15.6983 14.3055 15.8357C14.1 15.973 13.9398 16.1682 13.8451 16.3966C13.7505 16.6251 13.7258 16.8764 13.774 17.1189C13.8222 17.3613 13.9413 17.5841 14.1161 17.7589C14.2909 17.9337 14.5137 18.0527 14.7561 18.101C14.9986 18.1492 15.2499 18.1245 15.4784 18.0299C15.7068 17.9352 15.902 17.775 16.0393 17.5695C16.1767 17.3639 16.25 17.1222 16.25 16.875C16.25 16.5435 16.1183 16.2255 15.8839 15.9911C15.6495 15.7567 15.3315 15.625 15 15.625ZM18.7273 5.79219L16.7242 13.0016C16.6141 13.3954 16.3785 13.7425 16.0533 13.9904C15.728 14.2383 15.3308 14.3733 14.9219 14.375H7.2C6.78987 14.3748 6.39105 14.2405 6.06437 13.9925C5.7377 13.7446 5.50108 13.3965 5.39062 13.0016L2.65 3.125H1.25C1.08424 3.125 0.925268 3.05915 0.808058 2.94194C0.690848 2.82473 0.625 2.66576 0.625 2.5C0.625 2.33424 0.690848 2.17527 0.808058 2.05806C0.925268 1.94085 1.08424 1.875 1.25 1.875H3.125C3.26164 1.87497 3.39453 1.91973 3.50331 2.00241C3.6121 2.08509 3.69079 2.20115 3.72734 2.33281L4.46797 5H18.125C18.2214 4.99998 18.3164 5.02224 18.4027 5.06504C18.4891 5.10784 18.5643 5.17001 18.6226 5.24671C18.681 5.32341 18.7208 5.41255 18.7389 5.50718C18.7571 5.6018 18.7531 5.69935 18.7273 5.79219ZM17.3023 6.25H4.81563L6.59766 12.6672C6.63421 12.7989 6.7129 12.9149 6.82169 12.9976C6.93047 13.0803 7.06336 13.125 7.2 13.125H14.9219C15.0585 13.125 15.1914 13.0803 15.3002 12.9976C15.409 12.9149 15.4877 12.7989 15.5242 12.6672L17.3023 6.25Z" fill="white"/>
</symbol>

<symbol id="new-menu" xmlns="http://www.w3.org/2000/svg" width="28" height="28" viewBox="0 0 28 28" fill="none">
  <path d="M24.5 14C24.5 14.2321 24.4078 14.4546 24.2437 14.6187C24.0796 14.7828 23.8571 14.875 23.625 14.875H4.375C4.14294 14.875 3.92038 14.7828 3.75628 14.6187C3.59219 14.4546 3.5 14.2321 3.5 14C3.5 13.7679 3.59219 13.5454 3.75628 13.3813C3.92038 13.2172 4.14294 13.125 4.375 13.125H23.625C23.8571 13.125 24.0796 13.2172 24.2437 13.3813C24.4078 13.5454 24.5 13.7679 24.5 14ZM4.375 7.875H23.625C23.8571 7.875 24.0796 7.78281 24.2437 7.61872C24.4078 7.45462 24.5 7.23206 24.5 7C24.5 6.76794 24.4078 6.54538 24.2437 6.38128C24.0796 6.21719 23.8571 6.125 23.625 6.125H4.375C4.14294 6.125 3.92038 6.21719 3.75628 6.38128C3.59219 6.54538 3.5 6.76794 3.5 7C3.5 7.23206 3.59219 7.45462 3.75628 7.61872C3.92038 7.78281 4.14294 7.875 4.375 7.875ZM23.625 20.125H4.375C4.14294 20.125 3.92038 20.2172 3.75628 20.3813C3.59219 20.5454 3.5 20.7679 3.5 21C3.5 21.2321 3.59219 21.4546 3.75628 21.6187C3.92038 21.7828 4.14294 21.875 4.375 21.875H23.625C23.8571 21.875 24.0796 21.7828 24.2437 21.6187C24.4078 21.4546 24.5 21.2321 24.5 21C24.5 20.7679 24.4078 20.5454 24.2437 20.3813C24.0796 20.2172 23.8571 20.125 23.625 20.125Z" fill="#A1C342"/>
</symbol>

<symbol id="filter-desktop" xmlns="http://www.w3.org/2000/svg" width="24" height="24" viewBox="0 0 24 24" fill="none">
  <path d="M21.6197 4.64346C21.5043 4.37675 21.313 4.14986 21.0696 3.99101C20.8263 3.83216 20.5416 3.74836 20.251 3.75002H3.75095C3.46064 3.7506 3.17673 3.8354 2.93366 3.99416C2.6906 4.15291 2.49883 4.37879 2.38161 4.64438C2.26439 4.90998 2.22677 5.20389 2.2733 5.49045C2.31984 5.77701 2.44853 6.04391 2.64376 6.25877L2.65126 6.26721L9.00095 13.0472V20.25C9.00089 20.5215 9.0745 20.7879 9.21395 21.0208C9.35339 21.2538 9.55344 21.4445 9.79275 21.5727C10.0321 21.7008 10.3017 21.7617 10.5729 21.7486C10.844 21.7356 11.1066 21.6493 11.3325 21.4988L14.3325 19.4981C14.5382 19.3612 14.7068 19.1755 14.8234 18.9576C14.94 18.7398 15.001 18.4965 15.001 18.2494V13.0472L21.3516 6.26721L21.3591 6.25877C21.5564 6.04489 21.6863 5.77764 21.7327 5.49037C21.779 5.2031 21.7397 4.90854 21.6197 4.64346ZM13.7053 12.2419C13.5756 12.3795 13.5026 12.5609 13.501 12.75V18.2494L10.501 20.25V12.75C10.501 12.5596 10.4286 12.3762 10.2985 12.2372L3.75095 5.25002H20.251L13.7053 12.2419Z" fill="#A1C342"/>
</symbol>

<symbol id="order-by" xmlns="http://www.w3.org/2000/svg" width="24" height="24" viewBox="0 0 24 24" fill="none">
  <path d="M18.5 12C18.5 12.1989 18.421 12.3897 18.2803 12.5303C18.1397 12.671 17.9489 12.75 17.75 12.75H3.75C3.55109 12.75 3.36032 12.671 3.21967 12.5303C3.07902 12.3897 3 12.1989 3 12C3 11.8011 3.07902 11.6103 3.21967 11.4697C3.36032 11.329 3.55109 11.25 3.75 11.25H17.75C17.9489 11.25 18.1397 11.329 18.2803 11.4697C18.421 11.6103 18.5 11.8011 18.5 12ZM3.75 6.75H20.25C20.4489 6.75 20.6397 6.67098 20.7803 6.53033C20.921 6.38968 21 6.19891 21 6C21 5.80109 20.921 5.61032 20.7803 5.46967C20.6397 5.32902 20.4489 5.25 20.25 5.25H3.75C3.55109 5.25 3.36032 5.32902 3.21967 5.46967C3.07902 5.61032 3 5.80109 3 6C3 6.19891 3.07902 6.38968 3.21967 6.53033C3.36032 6.67098 3.55109 6.75 3.75 6.75ZM13.75 17.25H3.75C3.55109 17.25 3.36032 17.329 3.21967 17.4697C3.07902 17.6103 3 17.8011 3 18C3 18.1989 3.07902 18.3897 3.21967 18.5303C3.36032 18.671 3.55109 18.75 3.75 18.75H13.75C13.9489 18.75 14.1397 18.671 14.2803 18.5303C14.421 18.3897 14.5 18.1989 14.5 18C14.5 17.8011 14.421 17.6103 14.2803 17.4697C14.1397 17.329 13.9489 17.25 13.75 17.25Z" fill="#A1C342"/>
</symbol>

<symbol id="arrow-white" xmlns="http://www.w3.org/2000/svg" width="24" height="24" viewBox="0 0 24 24" fill="none">
  <path d="M14.469 20.0306L6.96896 12.5306C6.89922 12.4609 6.84391 12.3782 6.80616 12.2871C6.76842 12.1961 6.74899 12.0985 6.74899 11.9999C6.74899 11.9014 6.76842 11.8038 6.80616 11.7127C6.84391 11.6217 6.89922 11.539 6.96896 11.4693L14.469 3.9693C14.6097 3.82857 14.8006 3.74951 14.9996 3.74951C15.1986 3.74951 15.3895 3.82857 15.5302 3.9693C15.6709 4.11003 15.75 4.30091 15.75 4.49993C15.75 4.69895 15.6709 4.88982 15.5302 5.03055L8.5599 11.9999L15.5302 18.9693C15.5999 19.039 15.6552 19.1217 15.6929 19.2128C15.7306 19.3038 15.75 19.4014 15.75 19.4999C15.75 19.5985 15.7306 19.6961 15.6929 19.7871C15.6552 19.8781 15.5999 19.9609 15.5302 20.0306C15.4605 20.1002 15.3778 20.1555 15.2868 20.1932C15.1957 20.2309 15.0981 20.2503 14.9996 20.2503C14.901 20.2503 14.8035 20.2309 14.7124 20.1932C14.6214 20.1555 14.5386 20.1002 14.469 20.0306Z" fill="#fff"/>
</symbol>

<symbol id="new-heart-testimonials" width="25" height="24" viewBox="0 0 25 24" fill="none" xmlns="http://www.w3.org/2000/svg">
<path d="M22.7334 9.5625C22.7334 16.125 13.0031 21.4369 12.5887 21.6562C12.4795 21.715 12.3574 21.7458 12.2334 21.7458C12.1094 21.7458 11.9873 21.715 11.8781 21.6562C11.4637 21.4369 1.7334 16.125 1.7334 9.5625C1.73514 8.02146 2.34808 6.54404 3.43776 5.45436C4.52744 4.36468 6.00486 3.75174 7.5459 3.75C9.48184 3.75 11.1768 4.5825 12.2334 5.98969C13.29 4.5825 14.985 3.75 16.9209 3.75C18.4619 3.75174 19.9394 4.36468 21.029 5.45436C22.1187 6.54404 22.7317 8.02146 22.7334 9.5625Z" fill="#00754A"/>
</symbol>

</svg>
</svg>
</svg>
